<?xml version="1.0" encoding="UTF-8"?>
<svg xmlns="http://www.w3.org/2000/svg" xmlns:xlink="http://www.w3.org/1999/xlink" width="48px" height="48px" viewBox="0 0 48 48" version="1.1">
<g id="surface1">
<path style=" stroke:none;fill-rule:nonzero;fill:rgb(70.196078%,69.411765%,69.019608%);fill-opacity:1;" d="M 44 28.710938 C 44 27.226562 42.871094 26.019531 41.480469 26.019531 L 21.351562 26.019531 C 19.960938 26.019531 18.832031 27.226562 18.832031 28.710938 C 18.832031 30.195312 19.957031 31.402344 21.351562 31.402344 L 41.480469 31.402344 C 42.871094 31.402344 44 30.195312 44 28.710938 Z M 44 28.710938 "/>
<path style=" stroke:none;fill-rule:nonzero;fill:rgb(90.588235%,64.313725%,12.156863%);fill-opacity:1;" d="M 6.964844 36.375 L 15.589844 45.097656 C 17.535156 47.054688 20.226562 48 23.195312 48 C 26.164062 48 28.855469 46.976562 30.804688 45.011719 L 35.980469 39.738281 C 37.003906 38.710938 36.964844 37.007812 35.902344 35.9375 C 34.84375 34.867188 33.152344 34.832031 32.136719 35.859375 L 26.785156 41.074219 C 25.859375 42.007812 24.578125 42.398438 23.164062 42.398438 C 21.753906 42.398438 20.472656 42.007812 19.546875 41.074219 L 10.949219 32.347656 C 10.023438 31.414062 9.558594 30.046875 9.558594 28.621094 C 9.558594 27.195312 10.023438 25.90625 10.949219 24.972656 L 19.519531 16.214844 C 20.445312 15.28125 21.753906 14.925781 23.164062 14.925781 C 24.574219 14.925781 25.855469 15.3125 26.78125 16.246094 L 32.132812 21.460938 C 33.152344 22.488281 34.84375 22.453125 35.902344 21.382812 C 36.964844 20.3125 37.003906 18.609375 35.980469 17.582031 L 30.804688 12.308594 C 29.488281 10.996094 27.832031 10.074219 26.023438 9.648438 L 25.953125 9.636719 L 30.847656 4.628906 C 31.871094 3.601562 31.835938 1.898438 30.773438 0.828125 C 29.710938 -0.242188 28.023438 -0.277344 27 0.753906 L 6.964844 20.953125 C 5.019531 22.914062 4 25.625 4 28.621094 C 4 31.617188 5.019531 34.414062 6.964844 36.375 Z M 6.964844 36.375 "/>
<path style=" stroke:none;fill-rule:nonzero;fill:rgb(2.745098%,2.745098%,2.352941%);fill-opacity:1;" d="M 16.230469 45.628906 C 15.882812 45.433594 15.5625 45.191406 15.28125 44.90625 C 12.628906 42.238281 9.960938 39.585938 7.3125 36.910156 C 3.335938 32.894531 2.710938 27.039062 5.742188 22.273438 C 6.226562 21.542969 6.789062 20.871094 7.421875 20.265625 L 26.664062 0.976562 C 27.914062 -0.273438 29.660156 -0.324219 30.824219 0.84375 C 31.945312 1.96875 31.878906 3.753906 30.667969 4.976562 C 29.128906 6.527344 27.589844 8.074219 26.050781 9.625 C 25.96875 9.871094 25.769531 10.027344 25.601562 10.199219 C 23.875 11.953125 22.101562 13.65625 20.398438 15.4375 C 20.175781 15.667969 19.875 15.808594 19.652344 16.046875 C 16.808594 18.890625 13.929688 21.707031 11.121094 24.589844 C 8.851562 26.925781 8.929688 30.464844 11.257812 32.84375 C 13.875 35.515625 16.535156 38.144531 19.179688 40.792969 C 19.3125 40.925781 19.453125 41.054688 19.589844 41.1875 C 20.523438 41.792969 20.535156 43.6875 19.953125 44.53125 C 19.3125 45.460938 18.472656 46.03125 17.289062 45.984375 C 16.890625 45.972656 16.5625 45.8125 16.230469 45.628906 Z M 16.230469 45.628906 "/>
</g>
</svg>
